<svg width="200" height="60" viewBox="0 0 200 60" xmlns="http://www.w3.org/2000/svg">
  <defs>
    <linearGradient id="conduxGradient" x1="0%" y1="0%" x2="100%" y2="100%">
      <stop offset="0%" style="stop-color:#3498db;stop-opacity:1" />
      <stop offset="50%" style="stop-color:#f39c12;stop-opacity:1" />
      <stop offset="100%" style="stop-color:#e74c3c;stop-opacity:1" />
    </linearGradient>
    <linearGradient id="textGradient" x1="0%" y1="0%" x2="100%" y2="0%">
      <stop offset="0%" style="stop-color:#2c3e50;stop-opacity:1" />
      <stop offset="100%" style="stop-color:#34495e;stop-opacity:1" />
    </linearGradient>
  </defs>
  
  <!-- Background Circle -->
  <circle cx="30" cy="30" r="25" fill="url(#conduxGradient)" opacity="0.1"/>
  
  <!-- Main Icon - Stylized "C" -->
  <path d="M15 15 Q15 5 25 5 Q35 5 35 15 Q35 25 25 25 Q20 25 20 20 Q20 15 25 15 Q30 15 30 20 Q30 25 25 25 Q15 25 15 15 Z" 
        fill="url(#conduxGradient)" 
        stroke="url(#conduxGradient)" 
        stroke-width="2"/>
  
  <!-- Inner Design Elements -->
  <circle cx="25" cy="15" r="3" fill="white" opacity="0.8"/>
  <circle cx="30" cy="20" r="2" fill="white" opacity="0.6"/>
  <circle cx="20" cy="20" r="1.5" fill="white" opacity="0.7"/>
  
  <!-- Brand Text -->
  <text x="65" y="25" font-family="Arial, sans-serif" font-size="18" font-weight="bold" fill="url(#textGradient)">CONDUX</text>
  <text x="65" y="40" font-family="Arial, sans-serif" font-size="10" font-weight="normal" fill="#7f8c8d">DEVELOPMENT</text>
  
  <!-- Decorative Elements -->
  <rect x="65" y="45" width="60" height="2" fill="url(#conduxGradient)" opacity="0.3"/>
  <circle cx="130" cy="46" r="1" fill="url(#conduxGradient)"/>
</svg>
